<svg width="345" height="88" viewBox="0 0 345 88" fill="none" xmlns="http://www.w3.org/2000/svg">
<g clip-path="url(#clip0)">
<path d="M73.7515 4.24844C69.4672 -0.0357738 63.3915 -1.22771 58.9661 1.35025C52.9554 4.85156 34.0495 -6.26328 13.8932 13.893C-6.28822 34.0747 4.86335 52.9349 1.35076 58.9656C-1.2272 63.3913 -0.0355716 69.4669 4.24864 73.7511C8.53483 78.0373 14.6097 79.2261 19.0347 76.6489C25.0405 73.1495 43.9516 84.2613 64.1068 64.1066C84.2884 43.9245 73.1367 25.0644 76.6494 19.034C79.2274 14.6084 78.0357 8.5328 73.7515 4.24844V4.24844ZM70.3383 15.3534C64.4273 25.5008 77.2851 40.5868 58.9361 58.9359C40.5878 77.2846 25.5004 64.4275 15.3542 70.3377C11.8992 72.3497 5.59886 66.1877 7.6619 62.6462C13.5728 52.4987 0.715026 37.4127 19.0641 19.0637C37.4116 0.716042 52.5002 13.5714 62.6467 7.66139C66.1095 5.64436 72.3975 11.8185 70.3383 15.3534ZM44.461 16.6843C44.6697 18.3539 43.4854 19.8769 41.8155 20.0856C33.4601 21.1299 21.1305 33.4594 20.086 41.8152C19.8768 43.4893 18.3494 44.6692 16.6848 44.4606C15.0149 44.2519 13.8306 42.7291 14.0393 41.0594C15.4351 29.8947 29.9085 15.4329 41.0598 14.039C42.7284 13.8305 44.2523 15.0144 44.461 16.6843V16.6843Z" fill="black"/>
</g>
<path d="M96.286 26.04V66H88.726V26.04H96.286ZM128.865 50.394C128.865 51.474 128.793 52.446 128.649 53.31H106.779C106.959 55.47 107.715 57.162 109.047 58.386C110.379 59.61 112.017 60.222 113.961 60.222C116.769 60.222 118.767 59.016 119.955 56.604H128.109C127.245 59.484 125.589 61.86 123.141 63.732C120.693 65.568 117.687 66.486 114.123 66.486C111.243 66.486 108.651 65.856 106.347 64.596C104.079 63.3 102.297 61.482 101.001 59.142C99.7413 56.802 99.1113 54.102 99.1113 51.042C99.1113 47.946 99.7413 45.228 101.001 42.888C102.261 40.548 104.025 38.748 106.293 37.488C108.561 36.228 111.171 35.598 114.123 35.598C116.967 35.598 119.505 36.21 121.737 37.434C124.005 38.658 125.751 40.404 126.975 42.672C128.235 44.904 128.865 47.478 128.865 50.394ZM121.035 48.234C120.999 46.29 120.297 44.742 118.929 43.59C117.561 42.402 115.887 41.808 113.907 41.808C112.035 41.808 110.451 42.384 109.155 43.536C107.895 44.652 107.121 46.218 106.833 48.234H121.035ZM168.835 35.652C172.507 35.652 175.459 36.786 177.691 39.054C179.959 41.286 181.093 44.418 181.093 48.45V66H173.533V49.476C173.533 47.136 172.939 45.354 171.751 44.13C170.563 42.87 168.943 42.24 166.891 42.24C164.839 42.24 163.201 42.87 161.977 44.13C160.789 45.354 160.195 47.136 160.195 49.476V66H152.635V49.476C152.635 47.136 152.041 45.354 150.853 44.13C149.665 42.87 148.045 42.24 145.993 42.24C143.905 42.24 142.249 42.87 141.025 44.13C139.837 45.354 139.243 47.136 139.243 49.476V66H131.683V36.084H139.243V39.702C140.215 38.442 141.457 37.452 142.969 36.732C144.517 36.012 146.209 35.652 148.045 35.652C150.385 35.652 152.473 36.156 154.309 37.164C156.145 38.136 157.567 39.54 158.575 41.376C159.547 39.648 160.951 38.262 162.787 37.218C164.659 36.174 166.675 35.652 168.835 35.652ZM198.851 66.486C195.971 66.486 193.379 65.856 191.075 64.596C188.771 63.3 186.953 61.482 185.621 59.142C184.325 56.802 183.677 54.102 183.677 51.042C183.677 47.982 184.343 45.282 185.675 42.942C187.043 40.602 188.897 38.802 191.237 37.542C193.577 36.246 196.187 35.598 199.067 35.598C201.947 35.598 204.557 36.246 206.897 37.542C209.237 38.802 211.073 40.602 212.405 42.942C213.773 45.282 214.457 47.982 214.457 51.042C214.457 54.102 213.755 56.802 212.351 59.142C210.983 61.482 209.111 63.3 206.735 64.596C204.395 65.856 201.767 66.486 198.851 66.486ZM198.851 59.898C200.219 59.898 201.497 59.574 202.685 58.926C203.909 58.242 204.881 57.234 205.601 55.902C206.321 54.57 206.681 52.95 206.681 51.042C206.681 48.198 205.925 46.02 204.413 44.508C202.937 42.96 201.119 42.186 198.959 42.186C196.799 42.186 194.981 42.96 193.505 44.508C192.065 46.02 191.345 48.198 191.345 51.042C191.345 53.886 192.047 56.082 193.451 57.63C194.891 59.142 196.691 59.898 198.851 59.898ZM233.881 35.652C237.445 35.652 240.325 36.786 242.521 39.054C244.717 41.286 245.815 44.418 245.815 48.45V66H238.255V49.476C238.255 47.1 237.661 45.282 236.473 44.022C235.285 42.726 233.665 42.078 231.613 42.078C229.525 42.078 227.869 42.726 226.645 44.022C225.457 45.282 224.863 47.1 224.863 49.476V66H217.303V36.084H224.863V39.81C225.871 38.514 227.149 37.506 228.697 36.786C230.281 36.03 232.009 35.652 233.881 35.652ZM254.138 32.52C252.806 32.52 251.69 32.106 250.79 31.278C249.926 30.414 249.494 29.352 249.494 28.092C249.494 26.832 249.926 25.788 250.79 24.96C251.69 24.096 252.806 23.664 254.138 23.664C255.47 23.664 256.568 24.096 257.432 24.96C258.332 25.788 258.782 26.832 258.782 28.092C258.782 29.352 258.332 30.414 257.432 31.278C256.568 32.106 255.47 32.52 254.138 32.52ZM257.864 36.084V66H250.304V36.084H257.864ZM279.211 35.652C282.775 35.652 285.655 36.786 287.851 39.054C290.047 41.286 291.145 44.418 291.145 48.45V66H283.585V49.476C283.585 47.1 282.991 45.282 281.803 44.022C280.615 42.726 278.995 42.078 276.943 42.078C274.855 42.078 273.199 42.726 271.975 44.022C270.787 45.282 270.193 47.1 270.193 49.476V66H262.633V36.084H270.193V39.81C271.201 38.514 272.479 37.506 274.027 36.786C275.611 36.03 277.339 35.652 279.211 35.652ZM313.347 66L303.195 53.256V66H295.635V26.04H303.195V48.774L313.239 36.084H323.067L309.891 51.096L323.175 66H313.347ZM337.985 66.378C336.617 66.378 335.483 65.964 334.583 65.136C333.719 64.272 333.287 63.21 333.287 61.95C333.287 60.69 333.719 59.646 334.583 58.818C335.483 57.954 336.617 57.522 337.985 57.522C339.317 57.522 340.415 57.954 341.279 58.818C342.143 59.646 342.575 60.69 342.575 61.95C342.575 63.21 342.143 64.272 341.279 65.136C340.415 65.964 339.317 66.378 337.985 66.378Z" fill="black"/>
<defs>
<clipPath id="clip0">
<rect width="78" height="78" fill="white"/>
</clipPath>
</defs>
</svg>
